import './svgkiteanimation.css'

<svg width="1630" height="929" viewBox="0 0 1630 929" fill="none" xmlns="http://www.w3.org/2000/svg">
<path d="M1558.68 80.1944C1561.07 75.0121 1563.27 69.9842 1565.3 65.1631C1566.42 62.5047 1565.15 59.4412 1562.48 58.3352C1542.85 50.2155 1524.62 46.6181 1514.36 45.1022C1512.18 44.7805 1510.29 46.5547 1510.44 48.7248C1510.44 48.7882 1510.46 48.8553 1510.48 48.916C1510.91 50.6113 1517.15 75.4273 1518.11 92.2221C1520.16 111.537 1519.48 140.692 1519.48 140.692C1519.8 143.991 1524.16 144.958 1525.84 142.096C1534.18 127.878 1547.92 103.573 1558.68 80.1944Z" fill="#151414"/>
<path d="M1547.2 45.8786C1552.26 47.4422 1557.83 49.3792 1563.67 51.7636C1566.92 53.0922 1570.63 51.4832 1571.88 48.2029C1576.27 36.7142 1579.42 27.1395 1581.46 20.5572C1582.33 17.7278 1579.58 15.126 1576.79 16.151C1576.79 16.151 1565.11 22.023 1553.17 26.4216C1542.62 30.309 1523.34 35.8914 1523.34 35.8914C1521.28 36.6546 1521.52 39.6524 1523.68 40.0612C1530.24 41.2917 1538.3 43.1355 1547.2 45.8786Z" fill="#151414"/>
<path d="M1581.04 59.4794C1588.44 63.3485 1595.95 67.9602 1603.16 73.4531C1605.88 75.5252 1609.63 72.7564 1608.44 69.544C1608.44 69.544 1602.09 55.647 1598.55 45.9207C1594.98 36.1172 1591.15 22.7284 1591.15 22.7284C1590.53 21.0315 1588.1 21.0885 1587.57 22.8195C1585.47 29.5793 1582.26 39.2957 1577.81 50.8986C1576.56 54.1661 1577.94 57.8621 1581.04 59.4794Z" fill="#151414"/>
<path d="M1578.19 65.3091C1575.58 63.9539 1572.36 65.1165 1571.22 67.8307C1569.22 72.5896 1567.04 77.5489 1564.69 82.6517C1553.85 106.189 1540.03 130.643 1531.63 144.954C1530.71 146.527 1532.58 148.251 1534.07 147.207C1534.07 147.207 1561.58 124.541 1578.27 113.77C1578.28 113.766 1578.28 113.766 1578.29 113.761C1587.04 107.135 1610.6 93.7674 1610.6 93.7674C1612.37 92.5391 1612.58 89.9904 1611.03 88.503C1600.95 78.8038 1589.59 71.2228 1578.19 65.3091Z" fill="#151414"/>
<path d="M1521.29 148.07L1506.66 154.611C1503.56 155.996 1503.44 160.342 1506.46 161.901L1526.05 171.996C1528.99 173.509 1532.37 170.954 1531.71 167.717L1528.5 151.776C1527.84 148.524 1524.33 146.716 1521.29 148.07Z" fill="#151414"/>
<path d="M1553.86 94C1387.99 475.789 704.35 587.711 288.964 424.475C231.978 404.678 177.482 350.493 415.378 292.121C653.275 233.75 415.803 511.014 267.33 656.942C126.492 776.428 -288.887 932.411 344.034 926.302" stroke="url(#paint0_linear_137_4)" stroke-width="4"/>
<defs>
<linearGradient id="paint0_linear_137_4" x1="778.428" y1="474.081" x2="923.53" y2="118.927" gradientUnits="userSpaceOnUse">
<stop stop-color="#7182EA"/>
<stop offset="1" stop-color="#B656E0"/>
</linearGradient>
</defs>
</svg>

