<svg width="1900" height="1058" viewBox="0 0 1900 1058" fill="none" xmlns="http://www.w3.org/2000/svg">
<rect x="-4" width="1948" height="1058" fill="#222020"/>
<rect x="187.5" y="285.5" width="1405" height="42.2422" rx="9.5" stroke="#E4CFCF"/>
<rect x="187.5" y="285.5" width="1405" height="42.2422" rx="9.5" stroke="#E4CFCF"/>
<rect x="187.5" y="448.859" width="1405" height="42.2422" rx="9.5" stroke="#E4CFCF"/>
<rect x="187.5" y="612.219" width="1405" height="42.2422" rx="9.5" stroke="#E4CFCF"/>
<rect x="187.5" y="775.578" width="1405" height="42.2422" rx="9.5" stroke="#E4CFCF"/>
<rect x="187.5" y="367.18" width="1405" height="42.2422" rx="9.5" stroke="#E4CFCF"/>
<rect x="187.5" y="530.539" width="1405" height="42.2422" rx="9.5" stroke="#E4CFCF"/>
<rect x="187.5" y="693.898" width="1405" height="42.2422" rx="9.5" stroke="#E4CFCF"/>
<rect x="187.5" y="857.258" width="1405" height="42.2422" rx="9.5" stroke="#E4CFCF"/>
<rect x="187.5" y="899.5" width="592" height="50.0469" rx="9.5" transform="rotate(-90 187.5 899.5)" stroke="#E4CFCF"/>
<rect x="187.5" y="899.5" width="592" height="50.0469" rx="9.5" transform="rotate(-90 187.5 899.5)" stroke="#E4CFCF"/>
<rect x="380.344" y="899.5" width="592" height="50.0469" rx="9.5" transform="rotate(-90 380.344 899.5)" stroke="#E4CFCF"/>
<rect x="573.187" y="899.5" width="592" height="50.0469" rx="9.5" transform="rotate(-90 573.187 899.5)" stroke="#E4CFCF"/>
<rect x="766.031" y="899.5" width="592" height="50.0469" rx="9.5" transform="rotate(-90 766.031 899.5)" stroke="#E4CFCF"/>
<rect x="283.922" y="899.5" width="592" height="50.0469" rx="9.5" transform="rotate(-90 283.922 899.5)" stroke="#E4CFCF"/>
<rect x="476.766" y="899.5" width="592" height="50.0469" rx="9.5" transform="rotate(-90 476.766 899.5)" stroke="#E4CFCF"/>
<rect x="669.609" y="899.5" width="592" height="50.0469" rx="9.5" transform="rotate(-90 669.609 899.5)" stroke="#E4CFCF"/>
<rect x="862.453" y="899.5" width="592" height="50.0469" rx="9.5" transform="rotate(-90 862.453 899.5)" stroke="#E4CFCF"/>
<rect x="941.5" y="899.5" width="591.207" height="44.8438" rx="9.5" transform="rotate(-90 941.5 899.5)" stroke="#E4CFCF"/>
<rect x="941.5" y="899.5" width="591.207" height="44.8438" rx="9.5" transform="rotate(-90 941.5 899.5)" stroke="#E4CFCF"/>
<rect x="1114.69" y="899.5" width="591.207" height="44.8438" rx="9.5" transform="rotate(-90 1114.69 899.5)" stroke="#E4CFCF"/>
<rect x="1287.87" y="899.5" width="591.207" height="44.8438" rx="9.5" transform="rotate(-90 1287.87 899.5)" stroke="#E4CFCF"/>
<rect x="1461.06" y="899.5" width="591.207" height="44.8438" rx="9.5" transform="rotate(-90 1461.06 899.5)" stroke="#E4CFCF"/>
<rect x="1028.09" y="899.5" width="591.207" height="44.8438" rx="9.5" transform="rotate(-90 1028.09 899.5)" stroke="#E4CFCF"/>
<rect x="1201.28" y="899.5" width="591.207" height="44.8438" rx="9.5" transform="rotate(-90 1201.28 899.5)" stroke="#E4CFCF"/>
<rect x="1374.47" y="899.5" width="591.207" height="44.8438" rx="9.5" transform="rotate(-90 1374.47 899.5)" stroke="#E4CFCF"/>
<rect x="1547.66" y="899.5" width="591.207" height="44.8438" rx="9.5" transform="rotate(-90 1547.66 899.5)" stroke="#E4CFCF"/>
</svg>
