<svg width="947" height="596" viewBox="0 0 947 596" fill="none" xmlns="http://www.w3.org/2000/svg">
<path d="M946.138 415.29C946.138 644.242 786.541 829.712 589.819 829.712C393.098 829.712 233.5 644.242 233.5 415.29C233.5 186.338 393.098 0.868164 589.819 0.868164C786.541 0.868164 946.138 186.338 946.138 415.29Z" stroke="#BF9C06"/>
<path d="M808.31 418.735C808.31 647.687 648.712 833.157 451.991 833.157C255.269 833.157 95.6719 647.687 95.6719 418.735C95.6719 189.783 255.269 4.31348 451.991 4.31348C648.712 4.31348 808.31 189.783 808.31 418.735Z" stroke="#BF9C06"/>
<path d="M668.759 415.873C668.759 644.825 509.162 830.295 312.44 830.295C115.719 830.295 -43.8789 644.825 -43.8789 415.873C-43.8789 186.921 115.719 1.45117 312.44 1.45117C509.162 1.45117 668.759 186.921 668.759 415.873Z" stroke="#BF9C06"/>
</svg>
