<svg width="1900" height="1940" viewBox="0 0 1900 1940" fill="none" xmlns="http://www.w3.org/2000/svg">
<path d="M2003.14 1030.06L1915.27 1055.28L2017.27 799.632L2149.82 745.452L2003.14 1030.06Z" fill="url(#paint0_linear_2_401)"/>
<path d="M35.2731 765.545L-34.0605 842.987L92.5801 1012.14L118.531 978.516L35.2731 765.545Z" fill="url(#paint1_linear_2_401)"/>
<path d="M1691.87 864.516L1637.91 828.435L1691.83 708.851L1706.93 723.395L1769.34 738.591L1691.87 864.516Z" fill="#FED136"/>
<path d="M1799.11 687.153L1735.88 677.827L1711.78 662.222L1772.06 532.388L1898.53 519.547L1799.11 687.153Z" fill="#FED136"/>
<path d="M1706.93 723.396L1735.88 677.827L1481.28 524.073L1706.93 723.396Z" fill="white"/>
<path d="M1044.53 556.315L1111.11 654.485L1496.68 454.33L1512.35 420.944L1044.53 556.315Z" fill="url(#paint2_linear_2_401)"/>
<path d="M120.247 980.317L93.7018 1012.76L460.132 1057.29L430.453 969.763L120.247 980.317Z" fill="white"/>
<path d="M1681.58 99.9853L1699.95 276.766L1696.51 277.094L1678.76 105.865L1583.36 164.661L1596.08 354.386L1594.66 354.769L1339.78 420.973L1338.98 417.646L1592.42 351.76L1579.72 162.847L1580.62 162.286L1681.58 99.9853Z" fill="#C7C7C7"/>
<path d="M1334.41 361.419L1335.91 361.076L1591.6 293.458L1592.49 296.826L1338.22 364.06L1371.71 648.371L1691.2 863.731L1765.6 739.107L1768.63 740.857L1692.31 868.648L1368.47 650.404L1368.37 649.552L1334.41 361.419Z" fill="#C7C7C7"/>
<path d="M1349.09 468.154L1512.33 419.913L1512.64 419.945L1900.45 517.936L1798.98 688.979L1797.16 687.885L1897.23 519.223L1512.39 422.039L1349.69 470.15L1349.09 468.154Z" fill="#C7C7C7"/>
<path d="M36.3846 762.979L121.771 977.076L430.193 968.082L847.44 869.822L1043.37 554.823L1044.05 554.644L1298.57 480.794L1299.53 484.137L1045.66 557.743L849.619 872.856L848.945 873.035L430.676 971.531L430.522 971.515L119.47 980.61L119.03 979.441L35.2476 769.409L-306.128 1143.51L49.6378 1328.25L223.512 1274.6L336.872 1057.59L339.982 1059.16L225.926 1277.47L225.187 1277.68L49.2769 1332.02L48.6271 1331.67L-311.687 1144.49L-310.171 1142.81L36.3846 762.979Z" fill="#C7C7C7"/>
<path d="M1337.04 360.133L1371.14 649.622L1370.96 649.914L1335.61 703.08L1613.49 896.458L1691.37 865.15L1692.17 867.073L1613.25 898.772L1612.76 898.44L1333.19 703.919L1333.11 703.505L1289.25 420.204L1289.57 419.863L1337.04 360.133ZM1369.02 649.088L1335.57 365.28L1291.47 420.778L1334.82 700.565L1369.02 649.088Z" fill="#C7C7C7"/>
<path d="M-32.1603 842.124L94.1802 1011.47L459.823 1055.48L861.837 889.375L1110.13 653.073L1308.15 547.803L1309.76 550.902L1112.17 655.936L863.772 892.351L863.448 892.474L460.355 1059.06L459.892 1059.01L92.2846 1014.7L91.8457 1014.12L-34.9583 844.141L-32.1603 842.124Z" fill="#C7C7C7"/>
<path d="M1496.55 453.195L1773.68 530.966L1711.9 664.917L1710.02 664.067L1770.7 532.308L1496.79 455.402L1356.18 529.51L1355.18 527.66L1496.55 453.195Z" fill="#C7C7C7"/>
<path d="M1638.63 830.439L1692.19 708.383L1690.28 707.547L1636.72 829.603L1638.63 830.439Z" fill="#C7C7C7"/>
<path d="M1899 519.647L1898.79 517.578L1772.14 530.644L1772.35 532.713L1899 519.647Z" fill="#C7C7C7"/>
<path d="M1497.54 454.764L1513.26 421.387L1511.38 420.5L1495.66 453.878L1497.54 454.764Z" fill="#C7C7C7"/>
<path d="M94.0701 1013.74L121.461 979.439L119.835 978.141L92.4443 1012.44L94.0701 1013.74Z" fill="#C7C7C7"/>
<path d="M1480.86 521.192L1735.75 676.911L2156.57 744.101L2018.48 798.514L2017.9 798.36L1707.54 724.8L1707.22 724.549L1543.65 583.075L1533.49 756.138L1529.99 755.899L1540.56 575.863L1709.17 721.665L2018.14 794.862L2143.55 745.52L1734.47 680.207L1734.18 680.021L1484.1 527.235L1477.03 718.55L1473.58 718.44L1480.86 521.192Z" fill="#C7C7C7"/>
<path d="M2149.19 744.359L2151.02 745.299L2002.49 1031.27L2002.1 1031.42L1913.61 1056.79L2017.34 796.273L2019.28 797.099L1917.09 1053.63L2001.08 1029.51L2149.19 744.359Z" fill="#C7C7C7"/>
<path d="M1709.16 723.822L1735.94 679.146L1734.15 678.077L1707.38 722.753L1709.16 723.822Z" fill="#C7C7C7"/>
<path d="M1733.55 916.189L1801.21 903.026L1945.92 986.315L1944.15 989.28L1800.58 906.671L1741.67 918.095L1916.42 1053.81L1914.26 1056.55L1733.55 916.189Z" fill="#C7C7C7"/>
<path d="M1678.31 99.9541L1682.03 105.891L1585.14 165.622L1597.27 346.525L1696.2 274.097L1700.26 279.758L1591.16 359.641L1577.95 161.881L1678.31 99.9541Z" fill="#C7C7C7"/>
<path d="M1486.37 522.229L1745.35 705.378L2155.5 741.833L2004.84 1032.02L1998.75 1028.82L2144.65 747.844L1742.87 712.166L1742.12 711.558L1482.35 527.891L1486.37 522.229Z" fill="#C7C7C7"/>
<path d="M1928.98 503.365L1930.04 496.512L1491.99 428.711L1490.93 435.564L1928.98 503.365Z" fill="#C7C7C7"/>
<path d="M-47.9686 864.894L60.4813 1012.29L463.229 1072.8L760.447 928.494L763.514 934.675L464.317 1080.02L463.278 1079.82L56.5357 1018.74L-53.5402 868.991L-47.9686 864.894Z" fill="#C7C7C7"/>
<path d="M1619.2 96.86L1619.9 96.7455L1661.6 308.166L1661.31 308.198L1314.7 396.474L1362.64 671.344L1649.33 878.674L1732.27 727.717L1732.83 728.025L1649.57 879.696L1649.27 879.51L1361.98 671.743L1362 671.589L1313.85 395.98L1314.18 395.857L1660.81 307.647L1619.2 96.86Z" fill="#C7C7C7"/>
<path d="M1557.08 391.144L1557.26 391.225L1830.9 532.993L1830.81 533.326L1777.89 682.169L1777.2 681.91L1830.08 533.375L1557.06 391.89L1355.21 498.975L1354.9 498.35L1557.08 391.144Z" fill="#C7C7C7"/>
<path d="M1519.15 549.091L1519.61 549.512L1716.29 709.868L2074.22 774.721L2074.02 775.167L1959.43 1045.25L1757.02 891.939L1775.15 855.627L1775.77 855.911L1757.92 891.751L1959.11 1044.19L2073.23 775.241L1716.01 710.494L1715.92 710.453L1519.67 550.454L1503.3 739.709L1502.62 739.67L1519.15 549.091Z" fill="#C7C7C7"/>
<path d="M218.912 1262.77C219.432 1262.58 219.886 1262.41 220.43 1262.28C227.757 1260.48 235.214 1264.94 237.073 1272.24C238.867 1279.57 234.411 1287.03 227.108 1288.88C219.781 1290.68 212.325 1286.22 210.465 1278.92C208.802 1272.14 212.487 1265.19 218.912 1262.77ZM227.722 1285.99C232.914 1284.03 235.927 1278.45 234.598 1272.95C233.098 1266.99 227.079 1263.41 221.188 1264.88C215.232 1266.38 211.643 1272.4 213.119 1278.29C214.619 1284.25 220.638 1287.84 226.529 1286.36C226.878 1286.3 227.332 1286.13 227.722 1285.99Z" fill="#C7C7C7"/>
<path d="M123.959 950.367C124.133 956.914 129.583 962.08 136.13 961.905C142.677 961.73 147.843 956.281 147.668 949.733C147.493 943.186 142.044 938.02 135.497 938.195C128.949 938.37 123.784 943.819 123.959 950.367Z" fill="#C7C7C7"/>
<path d="M1811.18 867.006L1824.33 852.813L1821.23 849.938L1808.08 864.13L1811.18 867.006Z" fill="#C7C7C7"/>
<path d="M1568.42 464.45L1582.77 435.648L1573.33 430.949L1558.98 459.751L1568.42 464.45Z" fill="#C7C7C7"/>
<path d="M1750.81 1041.02C1747.4 1046.38 1748.98 1053.5 1754.34 1056.91C1759.7 1060.33 1766.82 1058.75 1770.23 1053.39C1773.65 1048.02 1772.07 1040.91 1766.71 1037.49C1761.34 1034.08 1754.23 1035.66 1750.81 1041.02Z" fill="#C7C7C7"/>
<path d="M1637 120.913L1651.32 168.21L1662.87 167.417L1658.47 109.054L1637 120.913Z" fill="#E3E5E9"/>
<path d="M1634.86 121.721L1649.55 170.21L1665.2 169.064L1660.67 108.598L1656.29 109.578L1660.55 165.774L1653.11 166.278L1639.12 120.044L1634.86 121.721Z" fill="#C7C7C7"/>
<path d="M1659.64 656.794L1693.37 620.611L1686.89 611.048L1638.66 644.164L1659.64 656.794Z" fill="white"/>
<path d="M1661.43 658.197L1695.96 621.192L1687.15 608.207L1637.15 642.511L1640.24 645.794L1686.62 613.89L1690.81 620.095L1657.85 655.392L1661.43 658.197Z" fill="#C7C7C7"/>
<path d="M205.277 1020.19L189.154 1066.94L198.934 1073.04L229.598 1023.19L205.277 1020.19Z" fill="white"/>
<path d="M203.063 1019.62L186.544 1067.48L199.898 1075.79L231.631 1024.06L227.506 1022.35L198.065 1070.33L191.77 1066.4L207.496 1020.77L203.063 1019.62Z" fill="#C7C7C7"/>
<path d="M1589.08 235.657L1585.29 222.315L1561.21 229.156L1565 242.498L1589.08 235.657Z" fill="#C7C7C7"/>
<defs>
<linearGradient id="paint0_linear_2_401" x1="2071.65" y1="1004.28" x2="1996.03" y2="803.329" gradientUnits="userSpaceOnUse">
<stop stop-color="#BC53DF"/>
<stop offset="1" stop-color="#252BB5"/>
</linearGradient>
<linearGradient id="paint1_linear_2_401" x1="81.903" y1="1016.16" x2="-6.49419" y2="781.263" gradientUnits="userSpaceOnUse">
<stop stop-color="#BC53DF"/>
<stop offset="1" stop-color="#252BB5"/>
</linearGradient>
<linearGradient id="paint2_linear_2_401" x1="1502.71" y1="432.829" x2="1061.21" y2="585.329" gradientUnits="userSpaceOnUse">
<stop stop-color="#BC53DF"/>
<stop offset="1" stop-color="#252BB5"/>
</linearGradient>
</defs>
</svg>
